<svg width="80" height="80" viewBox="0 0 80 80" fill="none" xmlns="http://www.w3.org/2000/svg">
<path fill-rule="evenodd" clip-rule="evenodd" d="M40 80C62.091 80 80 62.091 80 40C80 17.9086 62.091 0 40 0C17.9086 0 0 17.9086 0 40C0 62.091 17.9086 80 40 80Z" fill="white"/>
<path d="M27.5781 45.281C24.2422 45.144 22.1367 43.162 22.1367 40.0037C22.1367 36.8728 24.2422 34.8767 27.5781 34.74V45.281ZM36.41 40.0173C36.41 43.135 34.3047 45.131 30.9824 45.281V34.74C34.3047 34.863 36.41 36.8591 36.41 40.0173ZM27.5371 48.179V50.271H31.0098V48.179C36.438 48.015 39.951 44.939 39.951 40.0173C39.951 35.0544 36.438 31.9783 31.0098 31.8279V29.8318H27.5371V31.8279C22.1094 31.9919 18.582 35.0681 18.582 40.0037C18.582 44.953 22.1094 48.043 27.5371 48.179ZM56.043 49.916H59.543V30.1873H56.125L46.555 44.42H46.377V30.1873H42.863V49.916H46.281L55.865 35.7244H56.043V49.916Z" fill="#49C2E8"/>
</svg>
